<svg xmlns="http://www.w3.org/2000/svg" viewBox="0 0 128 128">
    <!-- handles (brand gold, behind the cup) -->
    <path d="M38 30 C16 30 16 56 42 58" fill="none" stroke="#e8b94a" stroke-width="7" stroke-linecap="round" />
    <path d="M90 30 C112 30 112 56 86 58" fill="none" stroke="#e8b94a" stroke-width="7" stroke-linecap="round" />
    <!-- cup bowl (brand gold) -->
    <path d="M34 24 H94 V38 A30 30 0 0 1 34 38 Z" fill="#ffcf5c" stroke="#d9a93a" stroke-width="4" stroke-linejoin="round" />
    <!-- engraved 1st-place star (brand cyan) -->
    <path d="M64 35 L67.53 45.15 L78.27 45.36 L69.71 51.85 L72.82 62.14 L64 56 L55.18 62.14 L58.29 51.85 L49.73 45.36 L60.47 45.15 Z" fill="#00d4ff" />
    <!-- stem -->
    <rect x="58" y="64" width="12" height="20" fill="#ffcf5c" stroke="#d9a93a" stroke-width="3" />
    <!-- flared base -->
    <path d="M50 84 H78 L84 104 H44 Z" fill="#ffcf5c" stroke="#d9a93a" stroke-width="4" stroke-linejoin="round" />
    <!-- foot bar -->
    <rect x="40" y="104" width="48" height="12" rx="3" fill="#ffcf5c" stroke="#d9a93a" stroke-width="4" />
</svg>
